<?xml version="1.0" standalone="no"?>
<!DOCTYPE svg PUBLIC "-//W3C//DTD SVG 20010904//EN"
 "http://www.w3.org/TR/2001/REC-SVG-20010904/DTD/svg10.dtd">
<svg version="1.0" xmlns="http://www.w3.org/2000/svg"
 width="1280.000000pt" height="1280.000000pt" viewBox="0 0 1280.000000 1280.000000"
 preserveAspectRatio="xMidYMid meet">
<metadata>
Created by potrace 1.15, written by Peter Selinger 2001-2017
</metadata>
<g transform="translate(0.000000,1280.000000) scale(0.100000,-0.100000)"
fill="#000000" stroke="none">
<path d="M8815 12794 c-805 -59 -1518 -332 -2115 -810 -442 -353 -781 -771
-1027 -1267 -199 -399 -309 -771 -375 -1267 -17 -132 -17 -693 0 -825 78 -573
223 -1018 478 -1461 59 -104 196 -312 247 -377 l30 -39 -559 -559 c-457 -458
-563 -559 -579 -554 -59 19 -124 17 -167 -4 -59 -29 -4734 -4703 -4744 -4744
-3 -15 -1 -42 6 -60 18 -43 774 -799 817 -817 18 -7 45 -9 60 -6 41 10 4715
4685 4744 4744 21 43 23 108 4 167 -5 16 96 122 553 578 l559 559 104 -75
c521 -373 1073 -584 1774 -679 132 -17 693 -17 825 0 389 52 681 126 993 251
1209 485 2082 1567 2302 2853 39 234 49 353 49 628 0 286 -7 385 -49 640 -157
950 -687 1813 -1470 2393 -531 393 -1135 630 -1815 712 -119 15 -539 27 -645
19z m580 -229 c1177 -125 2176 -785 2750 -1815 288 -519 435 -1097 435 -1710
-1 -582 -121 -1094 -380 -1605 -295 -584 -726 -1055 -1295 -1413 -127 -81
-466 -248 -610 -301 -424 -156 -795 -222 -1250 -223 -326 -1 -554 26 -853 98
-822 199 -1544 688 -2042 1384 -358 500 -566 1056 -640 1710 -18 155 -16 566
4 733 53 449 153 787 346 1182 174 355 360 620 625 894 590 608 1348 977 2190
1066 171 18 550 18 720 0z"/>
</g>
</svg>
