<svg width="434" height="434" viewBox="0 0 434 434" fill="none" xmlns="http://www.w3.org/2000/svg">
<g filter="url(#filter0_f_2_7)">
<circle cx="217" cy="217" r="207" fill="#FF9400"/>
</g>
<path d="M230.04 73.1079C229.767 73.1748 228.781 73.5491 227.833 73.9234C225.379 74.8993 225.457 74.8993 224.509 73.9903C223.6 73.1347 223.302 73.0277 222.523 73.2416C221.146 73.6293 220.225 74.3913 219.16 76.0357C217.836 78.0677 217.81 80.3137 219.056 82.2254L219.485 82.8804L220.497 82.8002L221.497 82.7066V83.3483C221.497 84.3109 221.718 85.6344 222.029 86.6771C222.237 87.399 222.445 87.7466 222.99 88.3348C223.899 89.3375 223.964 89.4979 223.964 90.7278C223.964 91.6503 224.003 91.8508 224.301 92.3053C225.041 93.4283 225.184 94.5513 224.756 95.9817C224.613 96.4363 224.314 97.0913 224.081 97.4389C223.704 98.0138 223.587 98.094 223.042 98.1608C222.51 98.241 222.393 98.3079 222.159 98.7223C222.003 98.9763 221.835 99.1501 221.757 99.11C221.692 99.0699 221.354 99.1501 221.03 99.2972C220.692 99.4576 220.199 99.5779 219.913 99.5779C219.407 99.5779 218.835 99.8319 217.212 100.768L216.369 101.249H214.616C212.629 101.262 212.538 101.289 210.422 102.559C208.488 103.736 208.345 103.776 205.333 103.709C201.684 103.642 200.672 103.682 199.568 103.936C197.919 104.31 190.999 106.77 189.623 107.465C188.052 108.268 186.403 109.524 184.78 111.155L183.586 112.358L183.663 113.027C183.715 113.388 183.858 114.003 184.001 114.404C184.131 114.805 184.403 116.008 184.624 117.077C185.053 119.323 185.923 122.198 186.857 124.51C187.208 125.393 188.389 127.919 189.48 130.125C192.635 136.569 193.777 139.122 193.765 139.751C193.752 140.045 193.57 140.86 193.349 141.555C192.479 144.336 192.064 146.649 192.219 147.839C192.349 148.841 192.661 149.644 193.063 150.045L193.453 150.432L193.933 150.178C194.206 150.031 194.466 149.898 194.531 149.871C194.582 149.844 194.466 150.299 194.258 150.873L193.907 151.916L194.167 152.397C194.66 153.307 194.738 153.36 195.102 153.053C195.608 152.651 195.764 152.718 195.816 153.347C195.842 153.815 195.933 153.962 196.296 154.216C196.855 154.603 196.868 154.603 197.387 154.135C197.802 153.748 197.828 153.748 197.971 154.002C198.153 154.296 198.945 154.349 199.49 154.095C199.789 153.962 199.815 153.868 199.815 153.173C199.815 151.996 199.88 151.916 200.438 152.397C200.711 152.625 201.269 152.959 201.684 153.146L202.45 153.48L202.788 153.213C203.216 152.879 203.177 152.478 202.671 151.849C201.58 150.526 201.165 149.069 201.542 147.892C201.684 147.424 201.71 147.17 201.606 146.916C201.542 146.729 201.438 145.7 201.373 144.63C201.269 142.598 201.139 142.063 200.568 141.355C200.074 140.74 199.971 140.473 199.802 139.403C199.425 136.876 199.088 135.78 198.153 133.935C195.894 129.497 195.102 126.997 194.621 122.706C194.479 121.422 194.258 119.818 194.141 119.163C193.803 117.158 193.777 116.396 194.05 116.142C194.466 115.767 195.141 115.62 196.361 115.62C197.01 115.62 198.568 115.5 199.815 115.353C203.775 114.885 203.658 114.885 204.813 115.273C205.839 115.634 206.086 115.66 210.721 116.021C211.617 116.088 212.603 116.222 212.928 116.329L213.512 116.503L213.928 117.96C215.122 122.131 216.589 127.304 216.823 128.28C216.992 128.922 217.29 129.657 217.563 130.085C217.953 130.714 218.004 130.861 217.927 131.409C217.875 131.863 217.966 132.438 218.264 133.615C218.848 135.887 218.822 136.542 218.056 138.775C217.719 139.751 217.303 141.034 217.122 141.622C216.953 142.211 216.758 142.826 216.693 142.973C216.628 143.133 215.966 143.748 215.213 144.363C212.902 146.194 211.733 147.411 211.214 148.534C210.967 149.069 210.396 150.085 209.942 150.78C208.903 152.424 208.553 153.133 208.111 154.523C207.916 155.151 207.631 156.02 207.475 156.462C207.241 157.09 207.176 157.585 207.15 158.734C207.137 160.191 207.124 160.218 206.527 161.461C206.19 162.157 205.917 162.798 205.917 162.892C205.917 163.119 205.086 163.801 203.32 164.991C202.074 165.82 201.464 166.381 199.62 168.306C197.049 171.007 196.673 171.488 194.842 174.456C192.596 178.105 191.778 179.375 190.545 181.127C188.987 183.333 186.909 185.886 186.429 186.193C186.208 186.327 185.676 186.514 185.234 186.608C184.027 186.849 182.43 187.33 179.249 188.373C176.743 189.215 176.25 189.335 175.341 189.348L174.302 189.362L171.381 190.806C168.408 192.276 167.798 192.651 167.226 193.359C166.486 194.295 166.058 194.589 164.552 195.217C162.163 196.22 159.631 197.49 158.346 198.359C157.048 199.215 150.919 201.982 149.699 202.276C149.309 202.356 148.777 202.583 148.517 202.757C148.206 202.958 147.557 203.158 146.635 203.332C145.856 203.466 145.168 203.613 145.09 203.64C145.025 203.666 144.843 203.626 144.7 203.546C144.558 203.466 144.181 203.399 143.856 203.386C142.844 203.345 141.688 202.984 141.169 202.557C140.507 202.009 140 201.862 138.338 201.728C136.832 201.608 136.573 201.674 136.391 202.236C136.352 202.37 136.131 202.53 135.898 202.624C135.677 202.704 135.313 202.918 135.119 203.078C134.625 203.492 134.443 204.682 134.262 208.613C134.093 212.182 134.041 212.409 132.885 214.949C130.665 219.842 130.354 220.832 130.081 224.12C129.925 225.965 130.003 229.067 130.237 230.39C130.406 231.38 130.899 232.302 131.314 232.409C131.509 232.449 131.834 232.369 132.171 232.195C132.769 231.888 133.132 231.246 133.288 230.19C133.431 229.307 135.145 225.885 136.235 224.308C136.78 223.545 137.456 222.463 137.741 221.901C138.027 221.34 138.442 220.751 138.663 220.591C138.871 220.417 139.208 220.056 139.39 219.776C139.572 219.481 139.896 219.174 140.104 219.094C140.312 219 140.598 218.706 140.753 218.439C141.026 217.931 142.259 216.741 142.376 216.861C142.415 216.901 142.221 217.489 141.961 218.171C141.61 219.094 141.467 219.669 141.442 220.364C141.416 220.872 141.39 221.34 141.39 221.38C141.39 221.42 141.195 221.554 140.948 221.661L140.52 221.874L140.364 223.398C140.221 224.749 140.065 225.845 139.884 226.848L139.819 227.182L140 226.848C140.169 226.567 140.546 225.003 140.935 223.011C141 222.69 141.117 222.543 141.506 222.396L142 222.182L142.091 221.112C142.13 220.538 142.285 219.695 142.402 219.268L142.649 218.492L142.74 219.094C142.935 220.203 143.272 220.658 144.051 220.832C144.441 220.925 144.571 220.885 144.895 220.604C145.259 220.297 145.44 219.628 145.168 219.628C145.103 219.628 144.96 219.588 144.856 219.548C144.726 219.508 144.635 219.588 144.583 219.816C144.545 220.003 144.415 220.163 144.298 220.163C144.038 220.163 143.467 219.562 143.467 219.281C143.467 219.161 143.688 218.639 143.947 218.118C144.428 217.169 145.064 216.393 145.661 216.006C145.973 215.805 145.973 215.805 145.765 215.15C145.635 214.789 145.544 214.321 145.544 214.094C145.544 213.693 145.57 213.666 146.466 213.452C146.998 213.318 148.245 212.784 149.361 212.222C151.685 211.032 152.231 210.832 152.75 210.939C153.062 211.006 153.217 210.952 153.529 210.658C153.763 210.431 154.633 210.016 155.736 209.602C158.631 208.492 159.307 208.292 161.28 207.931C163.955 207.436 167.941 206.313 175.12 204.054C178.068 203.118 178.717 202.864 178.937 202.583C179.301 202.102 179.872 201.888 181.963 201.434C182.962 201.206 184.546 200.792 185.468 200.498C187.26 199.923 188.675 199.723 189.428 199.936C189.805 200.043 190.064 200.003 190.921 199.682C192.7 199.014 193.102 198.72 193.92 197.503C194.427 196.768 194.868 196.273 195.258 196.033C195.582 195.819 196.205 195.338 196.634 194.95C197.66 194.041 200.84 191.942 202.256 191.233C203.437 190.659 212.915 184.242 214.94 182.664C216.498 181.448 217.355 180.699 219.29 178.854C221.198 177.049 222.055 176.314 222.263 176.314C222.341 176.314 222.925 176.608 223.548 176.969C225.691 178.226 227.119 178.854 228.833 179.309C229.767 179.549 231.118 179.977 231.845 180.231C233.585 180.859 235.324 181.247 239.946 182.063C245.114 182.972 246.763 183.346 248.918 184.135C250.086 184.576 251.579 185.351 251.956 185.739C252.345 186.14 252.345 186.354 251.982 188.613C251.722 190.258 251.67 190.458 251.32 190.792C251.034 191.06 250.891 191.38 250.749 192.049C250.658 192.544 250.45 193.159 250.307 193.399C249.957 194.014 249.489 195.725 249.216 197.37C249.048 198.359 249.022 199.054 249.087 200.043C249.191 201.674 249.048 202.664 247.996 207.57C247.568 209.535 246.957 212.516 246.62 214.214C246.295 215.899 245.945 217.436 245.841 217.623C245.607 218.064 245.386 219.374 245.386 220.284C245.386 220.965 245.088 222.235 244.192 225.484C244.036 226.032 243.841 226.5 243.738 226.54C243.647 226.58 243.4 226.54 243.179 226.473C242.946 226.38 242.764 226.38 242.725 226.46C242.673 226.527 242.543 226.58 242.413 226.58C242.27 226.58 241.998 226.928 241.66 227.556C240.894 228.946 240.583 229.949 240.505 231.179C240.466 231.781 240.349 232.797 240.245 233.452C239.998 234.909 240.063 235.323 240.686 236.192C241.284 237.021 241.79 237.315 243.049 237.583C243.595 237.69 244.672 238.077 245.464 238.452C246.243 238.826 247.126 239.173 247.399 239.214C247.684 239.267 248.762 239.815 249.801 240.417C253.112 242.355 254.358 242.89 256.176 243.157C256.708 243.238 257.188 243.358 257.253 243.425C257.331 243.505 257.565 243.558 257.786 243.558C257.993 243.572 258.72 243.679 259.382 243.812C260.499 244.04 260.772 244.053 263.277 243.893C266.549 243.679 266.913 243.572 267.458 242.569C267.679 242.195 267.848 241.754 267.848 241.593C267.848 241.205 266.627 239.775 266.186 239.641C265.991 239.588 265.017 239.414 264.018 239.267C261.07 238.839 261.07 238.839 259.603 236.874C259.11 236.206 258.785 235.925 258.214 235.644C257.578 235.323 257.461 235.203 257.344 234.775C257.266 234.494 257.201 234.2 257.201 234.12C257.201 234.04 257.02 233.893 256.786 233.786C256.163 233.505 255.916 232.944 255.786 231.513C255.63 229.949 255.513 229.628 254.942 229.267C254.683 229.107 254.124 228.492 253.696 227.904L252.917 226.834L253.099 225.537C253.202 224.829 253.319 223.88 253.371 223.439C253.423 222.997 253.514 222.57 253.579 222.489C253.644 222.409 253.748 221.901 253.826 221.366C253.903 220.818 254.423 218.92 254.994 217.155C255.565 215.391 256.344 212.891 256.734 211.607C257.266 209.869 257.734 208.666 258.565 206.968C259.175 205.698 259.668 204.575 259.668 204.482C259.668 204.067 260.356 201.995 261.07 200.217C261.901 198.172 262.434 196.527 262.589 195.592C262.654 195.15 262.628 194.963 262.473 194.776C262.278 194.549 262.304 194.442 262.901 193.265C263.472 192.129 263.836 191.086 264.939 187.343C265.355 185.886 265.472 185.645 266.29 184.496C267.809 182.33 267.679 180.605 265.757 177.958C264.394 176.1 262.667 174.095 261.979 173.6C258.824 171.314 255.098 168.734 252.917 167.33C251.19 166.221 250.242 165.726 247.217 164.389C243.608 162.785 241.764 161.769 239.739 160.272C237.7 158.761 236.22 157.959 235.052 157.732C234.61 157.638 234.182 157.518 234.091 157.464C233.779 157.264 234.078 156.435 234.805 155.499C235.545 154.55 235.701 154.202 235.844 153.159C235.896 152.772 236.051 152.357 236.246 152.13C236.675 151.609 237.025 149.978 237.272 147.371C237.609 143.708 237.83 142.946 238.908 141.729C239.791 140.727 240.401 139.671 240.972 138.146C241.426 136.917 242.141 134.069 242.465 132.131C242.686 130.861 242.725 130.754 243.296 130.112C243.699 129.657 244.101 128.976 244.491 128.067C244.815 127.304 245.114 126.69 245.179 126.703C245.412 126.703 250.268 134.564 251.722 137.278C252.527 138.802 252.67 138.989 253.293 139.376C254.137 139.898 257.084 141.021 257.604 141.021C258.461 141.021 259.045 140.446 261.187 137.545C263.187 134.831 263.628 134.123 264.628 132.05C265.602 130.005 265.848 129.203 266.432 126.048C267.069 122.585 267.9 120.005 268.886 118.414C269.198 117.933 269.393 117.759 269.821 117.626C270.6 117.398 271.314 116.85 272.067 115.928C272.418 115.5 272.937 114.938 273.236 114.698C273.573 114.404 273.807 114.07 273.911 113.695C274.054 113.187 274.041 113.107 273.755 112.679C273.482 112.278 273.443 112.104 273.508 111.529C273.586 110.941 273.547 110.821 273.236 110.433C272.924 110.046 272.898 109.965 273.041 109.538C273.223 108.963 273.184 108.896 272.314 108.321C271.639 107.866 271.613 107.84 271.808 107.559C272.34 106.77 271.872 105.981 270.704 105.714C270.301 105.621 270.146 105.674 269.341 106.195C268.847 106.516 268.289 106.931 268.12 107.118C267.731 107.546 267.588 107.546 267.198 107.131C267.03 106.944 266.822 106.797 266.731 106.797C266.64 106.797 266.277 107.211 265.913 107.706C265.29 108.575 264.368 109.524 263.68 110.019C263.368 110.233 263.368 110.286 263.342 112.612C263.329 114.551 263.277 115.152 263.057 115.874C262.914 116.356 262.654 117.331 262.473 118.04C262.083 119.618 260.019 123.762 258.967 125.112C258.59 125.593 258.175 126.155 258.045 126.382C257.669 127.01 257.175 127.518 256.955 127.518C256.825 127.518 256.565 127.091 256.253 126.329C255.981 125.674 255.254 124.216 254.644 123.093C253.047 120.152 251.943 117.746 251.554 116.369C251.177 115.019 251.164 114.751 251.424 114.283C251.839 113.548 251.618 112.465 250.606 110.273C250.307 109.631 250.034 108.816 249.983 108.401C249.814 107.024 248.23 104.31 246.334 102.198L245.659 101.45H244.711C242.907 101.45 241.102 100.768 241.102 100.086C241.102 99.9121 241.426 99.4709 241.959 98.9228C242.738 98.1341 242.816 98.0138 242.751 97.6261C242.686 97.2517 242.751 97.1181 243.205 96.6368C243.608 96.2224 243.712 96.0218 243.647 95.7946C243.595 95.6341 243.53 95.1796 243.478 94.8053C243.413 94.1368 243.426 94.07 243.88 93.562C244.14 93.2679 244.348 92.9871 244.348 92.947C244.348 92.8936 244.101 92.0781 243.802 91.1289C243.361 89.7118 243.296 89.3509 243.413 89.1771C243.789 88.6557 243.958 88.0407 243.958 87.2654C243.958 86.6771 244.036 86.3028 244.231 85.9419L244.504 85.4472L244.231 84.8991C244.088 84.605 243.647 83.4152 243.27 82.2387C242.413 79.6452 242.037 78.8832 241.18 77.9474C240.44 77.1319 238.986 75.9688 238.155 75.541C237.856 75.3806 237.428 74.9796 237.194 74.6453C236.752 74.017 236.415 73.87 235.519 73.9234C235.272 73.9368 234.506 73.763 233.831 73.509C232.494 73.0411 230.949 72.8673 230.04 73.1079Z" fill="black"/>
<path d="M77.0547 339V259H96.3906V323.297H129.672V339H77.0547ZM123.344 259H144.945L161.859 292.477H162.563L179.477 259H201.078L171.82 312.281V339H152.602V312.281L123.344 259ZM279.428 299C279.428 307.802 277.735 315.263 274.35 321.383C270.964 327.503 266.381 332.151 260.6 335.328C254.844 338.505 248.386 340.094 241.225 340.094C234.037 340.094 227.566 338.492 221.811 335.289C216.055 332.086 211.485 327.437 208.1 321.344C204.74 315.224 203.061 307.776 203.061 299C203.061 290.198 204.74 282.737 208.1 276.617C211.485 270.497 216.055 265.849 221.811 262.672C227.566 259.495 234.037 257.906 241.225 257.906C248.386 257.906 254.844 259.495 260.6 262.672C266.381 265.849 270.964 270.497 274.35 276.617C277.735 282.737 279.428 290.198 279.428 299ZM259.662 299C259.662 293.792 258.92 289.391 257.436 285.797C255.977 282.203 253.868 279.482 251.107 277.633C248.373 275.784 245.079 274.859 241.225 274.859C237.396 274.859 234.102 275.784 231.342 277.633C228.581 279.482 226.459 282.203 224.975 285.797C223.516 289.391 222.787 293.792 222.787 299C222.787 304.208 223.516 308.609 224.975 312.203C226.459 315.797 228.581 318.518 231.342 320.367C234.102 322.216 237.396 323.141 241.225 323.141C245.079 323.141 248.373 322.216 251.107 320.367C253.868 318.518 255.977 315.797 257.436 312.203C258.92 308.609 259.662 304.208 259.662 299ZM358.803 259V339H342.396L310.561 292.828H310.053V339H290.717V259H307.357L338.842 305.094H339.506V259H358.803Z" fill="black"/>
<defs>
<filter id="filter0_f_2_7" x="0" y="0" width="434" height="434" filterUnits="userSpaceOnUse" color-interpolation-filters="sRGB">
<feFlood flood-opacity="0" result="BackgroundImageFix"/>
<feBlend mode="normal" in="SourceGraphic" in2="BackgroundImageFix" result="shape"/>
<feGaussianBlur stdDeviation="5" result="effect1_foregroundBlur_2_7"/>
</filter>
</defs>
</svg>
