<?xml version="1.0" standalone="no"?>
<!DOCTYPE svg PUBLIC "-//W3C//DTD SVG 20010904//EN"
 "http://www.w3.org/TR/2001/REC-SVG-20010904/DTD/svg10.dtd">
<svg version="1.0" xmlns="http://www.w3.org/2000/svg"
 width="72.000000pt" height="72.000000pt" viewBox="0 0 72.000000 72.000000"
 preserveAspectRatio="xMidYMid meet">

<g transform="translate(0.000000,72.000000) scale(0.100000,-0.100000)"
fill="#000000" stroke="none">
<path d="M291 710 c-67 -14 -131 -49 -181 -100 -140 -139 -140 -361 0 -500
139 -140 361 -140 500 0 214 213 82 574 -220 603 -30 3 -75 2 -99 -3z m-49
-137 c22 -20 23 -51 1 -75 -20 -22 -56 -23 -77 -2 -19 18 -21 65 -4 82 17 17
58 15 80 -5z m326 -158 c20 -24 22 -36 22 -146 l0 -119 -45 0 -45 0 0 79 c0
120 -24 160 -76 126 -22 -14 -24 -22 -24 -110 l0 -95 -50 0 -51 0 3 148 3 147
48 3 c38 3 47 0 47 -14 0 -13 3 -14 14 -5 43 36 116 29 154 -14z m-318 -115
l0 -150 -45 0 -45 0 0 150 0 150 45 0 45 0 0 -150z"/>
</g>
</svg>
